<svg width="16" height="12" viewBox="0 0 16 12" fill="none" xmlns="http://www.w3.org/2000/svg">
<path d="M4.72727 5.09368C5.11304 5.09368 5.48301 4.94044 5.75579 4.66765C6.02857 4.39487 6.18182 4.02491 6.18182 3.63914C6.18182 3.25337 6.02857 2.8834 5.75579 2.61062C5.48301 2.33784 5.11304 2.18459 4.72727 2.18459H1.45455V5.09368H4.72727ZM5.45455 6.54823H1.45455V9.45732H5.45455C5.84031 9.45732 6.21028 9.30407 6.48306 9.03129C6.75584 8.75851 6.90909 8.38854 6.90909 8.00277C6.90909 7.617 6.75584 7.24703 6.48306 6.97425C6.21028 6.70147 5.84031 6.54823 5.45455 6.54823ZM6.95491 5.50968C7.50002 5.83746 7.92269 6.33487 8.15818 6.92574C8.39367 7.51661 8.42902 8.16838 8.2588 8.78126C8.08859 9.39413 7.72219 9.93433 7.21572 10.3191C6.70925 10.7039 6.09062 10.9121 5.45455 10.9119H0V0.730045H4.72727C5.28107 0.73011 5.82335 0.888249 6.29037 1.18588C6.7574 1.48351 7.12976 1.90826 7.36371 2.41022C7.59766 2.91218 7.68346 3.47049 7.61105 4.01953C7.53863 4.56858 7.311 5.08555 6.95491 5.50968ZM10.5455 1.45732H14.5455V2.54823H10.5455V1.45732ZM16 7.63914H10.5455V7.82095C10.5453 8.27022 10.6964 8.70645 10.9744 9.05936C11.2524 9.41226 11.6412 9.66128 12.078 9.76629C12.5148 9.87129 12.9743 9.82617 13.3823 9.63818C13.7904 9.45019 14.1232 9.1303 14.3273 8.73005H15.8793C15.6577 9.53606 15.1515 10.2345 14.4544 10.6958C13.7574 11.1572 12.9167 11.3503 12.0882 11.2394C11.2596 11.1284 10.4994 10.7209 9.94832 10.0924C9.39722 9.46385 9.0926 8.65687 9.09091 7.82095V6.73005C9.09091 5.81384 9.45487 4.93517 10.1027 4.28731C10.7506 3.63946 11.6293 3.2755 12.5455 3.2755C13.4617 3.2755 14.3403 3.63946 14.9882 4.28731C15.636 4.93517 16 5.81384 16 6.73005V7.63914ZM14.4698 6.18459C14.3507 5.76604 14.0984 5.39772 13.7512 5.13547C13.4039 4.87322 12.9806 4.73134 12.5455 4.73134C12.1103 4.73134 11.687 4.87322 11.3397 5.13547C10.9925 5.39772 10.7402 5.76604 10.6211 6.18459H14.4698Z" fill="black"/>
</svg>
