<svg width="16" height="16" viewBox="0 0 16 16" fill="none" xmlns="http://www.w3.org/2000/svg">
<path d="M5.192 13.7528C5.2112 13.484 5.2496 13.216 5.3072 12.952C5.3576 12.716 5.5104 12.048 5.7344 11.08L5.74 11.056L6.0496 9.7216C6.1128 9.4496 6.1616 9.2384 6.1944 9.168C6.03905 8.80886 5.96162 8.42086 5.9672 8.0296C5.9672 6.96 6.572 6.1312 7.356 6.1312C7.644 6.1264 7.9192 6.2512 8.1096 6.472C8.3 6.692 8.388 6.9872 8.3512 7.2688C8.3512 7.6312 8.2832 7.9072 7.9888 8.8968C7.932 9.0872 7.8928 9.22 7.856 9.3536C7.8152 9.504 7.78 9.64 7.7504 9.7712C7.6736 10.08 7.744 10.4088 7.94 10.656C8.03512 10.7768 8.15788 10.873 8.29793 10.9365C8.43799 11 8.59124 11.0289 8.7448 11.0208C9.9384 11.0208 10.8248 9.4328 10.8248 7.3824C10.8248 5.8064 9.7928 4.7632 8.0792 4.7632C7.65023 4.74725 7.22263 4.8205 6.82342 4.97831C6.42422 5.13612 6.06211 5.37505 5.76 5.68C5.45141 5.99163 5.20795 6.36158 5.04382 6.76827C4.87968 7.17497 4.79816 7.61027 4.804 8.0488C4.78411 8.5214 4.92889 8.98626 5.2136 9.364C5.3584 9.476 5.4136 9.6704 5.3536 9.836C5.3208 9.9704 5.2416 10.2776 5.2128 10.38C5.20445 10.4303 5.18449 10.478 5.15449 10.5192C5.12449 10.5605 5.08529 10.5942 5.04 10.6176C4.9962 10.6404 4.94759 10.6525 4.89819 10.6528C4.8488 10.6531 4.80005 10.6416 4.756 10.6192C3.828 10.236 3.3192 9.1968 3.3192 7.8672C3.3192 5.4792 5.312 3.4 8.2728 3.4C10.7808 3.4 12.6576 5.2632 12.6576 7.512C12.6576 10.3376 11.112 12.3952 8.9056 12.3952C8.59177 12.4043 8.28019 12.3396 7.9959 12.2064C7.71162 12.0731 7.46258 11.875 7.2688 11.628L7.2344 11.7696L7.0688 12.4512L7.0672 12.4568C6.9504 12.9368 6.8688 13.2704 6.8368 13.396C6.752 13.68 6.6448 13.9584 6.5168 14.228C8.10871 14.607 9.78531 14.3618 11.202 13.5428C12.6187 12.7238 13.6679 11.3933 14.1339 9.82463C14.5999 8.25601 14.4474 6.56845 13.7077 5.10881C12.9679 3.64917 11.6972 2.52833 10.1566 1.97665C8.61597 1.42498 6.92258 1.48438 5.42443 2.14265C3.92627 2.80092 2.73718 4.00804 2.10153 5.51593C1.46588 7.02382 1.43196 8.71792 2.00676 10.25C2.58156 11.7822 3.72139 13.0359 5.192 13.7536V13.7528ZM8 16C3.5816 16 0 12.4184 0 8C0 3.5816 3.5816 0 8 0C12.4184 0 16 3.5816 16 8C16 12.4184 12.4184 16 8 16Z" fill="black"/>
</svg>
